<?xml version="1.0" standalone="no"?>
<!DOCTYPE svg PUBLIC "-//W3C//DTD SVG 20010904//EN"
 "http://www.w3.org/TR/2001/REC-SVG-20010904/DTD/svg10.dtd">
<svg version="1.0" xmlns="http://www.w3.org/2000/svg"
 width="512.000000pt" height="512.000000pt" viewBox="0 0 512.000000 512.000000"
 preserveAspectRatio="xMidYMid meet">

<g transform="translate(0.000000,512.000000) scale(0.100000,-0.100000)"
fill="#C70101" stroke="none">
<path d="M2370 5113 c-379 -36 -661 -116 -980 -278 -378 -193 -717 -497 -965
-865 -42 -63 -114 -191 -160 -285 -168 -340 -248 -661 -262 -1040 -15 -426 73
-832 263 -1214 133 -269 271 -459 488 -677 221 -220 412 -357 681 -489 188
-92 309 -137 500 -185 500 -126 1002 -102 1490 71 149 53 407 182 540 271 365
243 667 578 866 963 181 348 271 694 286 1090 15 426 -73 832 -263 1214 -124
250 -263 447 -458 648 -216 224 -428 378 -711 518 -296 146 -572 225 -900 255
-102 9 -333 11 -415 3z m235 -1884 c34 -9 118 -89 578 -547 296 -295 545 -549
553 -564 17 -32 18 -111 3 -141 -35 -68 -105 -104 -177 -91 -33 5 -95 64 -520
488 l-482 481 -478 -478 c-417 -417 -483 -479 -518 -487 -70 -16 -147 18 -179
80 -19 37 -19 113 -1 148 8 15 255 267 548 560 592 590 576 577 673 551z"/>
</g>
</svg>
