<svg width="18" height="30" viewBox="0 0 18 30" fill="none" xmlns="http://www.w3.org/2000/svg">
<g clip-path="url(#clip0_101075_20)">
<rect width="18" height="30" rx="2" fill="black"/>
<g style="mix-blend-mode:luminosity" filter="url(#filter0_d_101075_20)">
<path d="M15.0625 0.9375H2.875C2.37792 0.93813 1.90138 1.1295 1.54989 1.46966C1.1984 1.80981 1.00065 2.27097 1 2.75202V27.248C1.00065 27.729 1.1984 28.1902 1.54989 28.5303C1.90138 28.8705 2.37792 29.0619 2.875 29.0625H15.0625C15.5596 29.0619 16.0361 28.8705 16.3876 28.5303C16.7391 28.1902 16.9368 27.729 16.9375 27.248V2.75202C16.9368 2.27097 16.7391 1.80981 16.3876 1.46966C16.0361 1.1295 15.5596 0.93813 15.0625 0.9375V0.9375ZM11.1625 1.84476L10.8988 2.75202H6.99121L6.75684 1.84476H11.1625ZM16 27.248C15.9997 27.4885 15.9008 27.7191 15.7251 27.8892C15.5493 28.0592 15.311 28.1549 15.0625 28.1552H2.875C2.62646 28.1549 2.38819 28.0592 2.21245 27.8892C2.0367 27.7191 1.93783 27.4885 1.9375 27.248V2.75202C1.93783 2.51149 2.0367 2.28091 2.21245 2.11084C2.38819 1.94076 2.62646 1.84507 2.875 1.84476H5.79004L6.17031 3.31565C6.19566 3.41379 6.25418 3.50091 6.33656 3.56317C6.41895 3.62543 6.52047 3.65926 6.625 3.65927H11.2539C11.3561 3.65927 11.4554 3.62698 11.5369 3.5673C11.6183 3.50763 11.6774 3.42384 11.7051 3.32869L12.1363 1.84476H15.0625C15.311 1.84507 15.5493 1.94076 15.7251 2.11084C15.9008 2.28091 15.9997 2.51149 16 2.75202V27.248Z" fill="white"/>
</g>
<g filter="url(#filter1_d_101075_20)">
<path d="M6.625 26.3408H3.34375C3.21943 26.3408 3.1002 26.3886 3.01229 26.4736C2.92439 26.5587 2.875 26.6741 2.875 26.7944C2.875 26.9147 2.92439 27.0301 3.01229 27.1152C3.1002 27.2002 3.21943 27.248 3.34375 27.248H6.625C6.74932 27.248 6.86855 27.2002 6.95646 27.1152C7.04436 27.0301 7.09375 26.9147 7.09375 26.7944C7.09375 26.6741 7.04436 26.5587 6.95646 26.4736C6.86855 26.3886 6.74932 26.3408 6.625 26.3408Z" fill="white"/>
</g>
<g filter="url(#filter2_d_101075_20)">
<path d="M8.5 26.3408H8.03125C7.90693 26.3408 7.7877 26.3886 7.69979 26.4736C7.61189 26.5587 7.5625 26.6741 7.5625 26.7944C7.5625 26.9147 7.61189 27.0301 7.69979 27.1152C7.7877 27.2002 7.90693 27.248 8.03125 27.248H8.5C8.62432 27.248 8.74355 27.2002 8.83146 27.1152C8.91936 27.0301 8.96875 26.9147 8.96875 26.7944C8.96875 26.6741 8.91936 26.5587 8.83146 26.4736C8.74355 26.3886 8.62432 26.3408 8.5 26.3408Z" fill="white"/>
</g>
<g filter="url(#filter3_d_101075_20)">
<path d="M10.6162 12.3429C10.5634 12.3123 10.5049 12.292 10.444 12.2832C10.3831 12.2744 10.321 12.2774 10.2613 12.2918C10.2016 12.3063 10.1454 12.3319 10.0959 12.3674C10.0465 12.4029 10.0047 12.4474 9.97306 12.4985L7.16055 17.0348C7.09659 17.1379 7.07759 17.2615 7.10775 17.3782C7.1379 17.4949 7.21473 17.5953 7.32133 17.6572C7.42794 17.7191 7.55559 17.7374 7.6762 17.7083C7.79681 17.6791 7.9005 17.6047 7.96446 17.5016L10.777 12.9653C10.8086 12.9142 10.8296 12.8576 10.8387 12.7987C10.8477 12.7397 10.8447 12.6797 10.8298 12.6219C10.8148 12.5641 10.7883 12.5097 10.7516 12.4618C10.715 12.414 10.669 12.3736 10.6162 12.3429Z" fill="white"/>
</g>
<g filter="url(#filter4_d_101075_20)">
<path d="M12.1473 12.4483C12.1088 12.4018 12.0612 12.3631 12.0073 12.3344C11.9533 12.3056 11.8941 12.2875 11.8329 12.2809C11.7093 12.2676 11.5853 12.3024 11.4883 12.3776C11.3912 12.4528 11.3289 12.5623 11.3152 12.6819C11.3015 12.8015 11.3375 12.9214 11.4152 13.0154L13.0558 15L11.4152 16.9846C11.3375 17.0786 11.3015 17.1985 11.3152 17.3181C11.3289 17.4377 11.3912 17.5472 11.4883 17.6224C11.5853 17.6976 11.7093 17.7324 11.8329 17.7191C11.9565 17.7058 12.0696 17.6456 12.1473 17.5517L14.0223 15.2835C14.0888 15.2031 14.1251 15.1031 14.1251 15C14.1251 14.8969 14.0888 14.7969 14.0223 14.7165L12.1473 12.4483Z" fill="white"/>
</g>
<g filter="url(#filter5_d_101075_20)">
<path d="M5.79021 17.5517C5.86791 17.6456 5.98099 17.7058 6.10458 17.7191C6.22817 17.7324 6.35214 17.6976 6.44921 17.6224C6.54629 17.5472 6.60853 17.4377 6.62223 17.3181C6.63593 17.1985 6.59998 17.0786 6.52228 16.9846L4.88165 15L6.52228 13.0154C6.56075 12.9689 6.58938 12.9155 6.60653 12.8582C6.62368 12.801 6.62902 12.7411 6.62223 12.6819C6.61545 12.6226 6.59668 12.5653 6.56699 12.5131C6.5373 12.4609 6.49728 12.4149 6.44921 12.3776C6.40115 12.3404 6.34597 12.3127 6.28684 12.2961C6.2277 12.2795 6.16577 12.2743 6.10458 12.2809C6.04339 12.2875 5.98413 12.3056 5.93019 12.3344C5.87625 12.3631 5.82868 12.4018 5.79021 12.4483L3.91521 14.7165C3.84865 14.7969 3.81238 14.8969 3.81238 15C3.81238 15.1031 3.84865 15.2031 3.91521 15.2835L5.79021 17.5517Z" fill="white"/>
</g>
</g>
<defs>
<filter id="filter0_d_101075_20" x="-3" y="0.9375" width="23.9375" height="36.125" filterUnits="userSpaceOnUse" color-interpolation-filters="sRGB">
<feFlood flood-opacity="0" result="BackgroundImageFix"/>
<feColorMatrix in="SourceAlpha" type="matrix" values="0 0 0 0 0 0 0 0 0 0 0 0 0 0 0 0 0 0 127 0" result="hardAlpha"/>
<feOffset dy="4"/>
<feGaussianBlur stdDeviation="2"/>
<feComposite in2="hardAlpha" operator="out"/>
<feColorMatrix type="matrix" values="0 0 0 0 0 0 0 0 0 0 0 0 0 0 0 0 0 0 0.25 0"/>
<feBlend mode="normal" in2="BackgroundImageFix" result="effect1_dropShadow_101075_20"/>
<feBlend mode="normal" in="SourceGraphic" in2="effect1_dropShadow_101075_20" result="shape"/>
</filter>
<filter id="filter1_d_101075_20" x="-1.125" y="26.3408" width="12.2188" height="8.90729" filterUnits="userSpaceOnUse" color-interpolation-filters="sRGB">
<feFlood flood-opacity="0" result="BackgroundImageFix"/>
<feColorMatrix in="SourceAlpha" type="matrix" values="0 0 0 0 0 0 0 0 0 0 0 0 0 0 0 0 0 0 127 0" result="hardAlpha"/>
<feOffset dy="4"/>
<feGaussianBlur stdDeviation="2"/>
<feComposite in2="hardAlpha" operator="out"/>
<feColorMatrix type="matrix" values="0 0 0 0 0 0 0 0 0 0 0 0 0 0 0 0 0 0 0.25 0"/>
<feBlend mode="normal" in2="BackgroundImageFix" result="effect1_dropShadow_101075_20"/>
<feBlend mode="normal" in="SourceGraphic" in2="effect1_dropShadow_101075_20" result="shape"/>
</filter>
<filter id="filter2_d_101075_20" x="3.5625" y="26.3408" width="9.40625" height="8.90729" filterUnits="userSpaceOnUse" color-interpolation-filters="sRGB">
<feFlood flood-opacity="0" result="BackgroundImageFix"/>
<feColorMatrix in="SourceAlpha" type="matrix" values="0 0 0 0 0 0 0 0 0 0 0 0 0 0 0 0 0 0 127 0" result="hardAlpha"/>
<feOffset dy="4"/>
<feGaussianBlur stdDeviation="2"/>
<feComposite in2="hardAlpha" operator="out"/>
<feColorMatrix type="matrix" values="0 0 0 0 0 0 0 0 0 0 0 0 0 0 0 0 0 0 0.25 0"/>
<feBlend mode="normal" in2="BackgroundImageFix" result="effect1_dropShadow_101075_20"/>
<feBlend mode="normal" in="SourceGraphic" in2="effect1_dropShadow_101075_20" result="shape"/>
</filter>
<filter id="filter3_d_101075_20" x="3.09375" y="12.2783" width="11.75" height="13.4435" filterUnits="userSpaceOnUse" color-interpolation-filters="sRGB">
<feFlood flood-opacity="0" result="BackgroundImageFix"/>
<feColorMatrix in="SourceAlpha" type="matrix" values="0 0 0 0 0 0 0 0 0 0 0 0 0 0 0 0 0 0 127 0" result="hardAlpha"/>
<feOffset dy="4"/>
<feGaussianBlur stdDeviation="2"/>
<feComposite in2="hardAlpha" operator="out"/>
<feColorMatrix type="matrix" values="0 0 0 0 0 0 0 0 0 0 0 0 0 0 0 0 0 0 0.25 0"/>
<feBlend mode="normal" in2="BackgroundImageFix" result="effect1_dropShadow_101075_20"/>
<feBlend mode="normal" in="SourceGraphic" in2="effect1_dropShadow_101075_20" result="shape"/>
</filter>
<filter id="filter4_d_101075_20" x="7.31238" y="12.2781" width="10.8127" height="13.4437" filterUnits="userSpaceOnUse" color-interpolation-filters="sRGB">
<feFlood flood-opacity="0" result="BackgroundImageFix"/>
<feColorMatrix in="SourceAlpha" type="matrix" values="0 0 0 0 0 0 0 0 0 0 0 0 0 0 0 0 0 0 127 0" result="hardAlpha"/>
<feOffset dy="4"/>
<feGaussianBlur stdDeviation="2"/>
<feComposite in2="hardAlpha" operator="out"/>
<feColorMatrix type="matrix" values="0 0 0 0 0 0 0 0 0 0 0 0 0 0 0 0 0 0 0.25 0"/>
<feBlend mode="normal" in2="BackgroundImageFix" result="effect1_dropShadow_101075_20"/>
<feBlend mode="normal" in="SourceGraphic" in2="effect1_dropShadow_101075_20" result="shape"/>
</filter>
<filter id="filter5_d_101075_20" x="-0.187622" y="12.2781" width="10.8127" height="13.4437" filterUnits="userSpaceOnUse" color-interpolation-filters="sRGB">
<feFlood flood-opacity="0" result="BackgroundImageFix"/>
<feColorMatrix in="SourceAlpha" type="matrix" values="0 0 0 0 0 0 0 0 0 0 0 0 0 0 0 0 0 0 127 0" result="hardAlpha"/>
<feOffset dy="4"/>
<feGaussianBlur stdDeviation="2"/>
<feComposite in2="hardAlpha" operator="out"/>
<feColorMatrix type="matrix" values="0 0 0 0 0 0 0 0 0 0 0 0 0 0 0 0 0 0 0.25 0"/>
<feBlend mode="normal" in2="BackgroundImageFix" result="effect1_dropShadow_101075_20"/>
<feBlend mode="normal" in="SourceGraphic" in2="effect1_dropShadow_101075_20" result="shape"/>
</filter>
<clipPath id="clip0_101075_20">
<rect width="18" height="30" rx="2" fill="white"/>
</clipPath>
</defs>
</svg>
