<svg width="30" height="30" viewBox="0 0 30 30" fill="none" xmlns="http://www.w3.org/2000/svg">
<rect width="30" height="30" rx="2" fill="black"/>
<path d="M26.3226 2H3.67742C3.23272 2.00071 2.8064 2.21578 2.49195 2.59805C2.1775 2.98033 2.00058 3.4986 2 4.03922V21.3725C2.00058 21.9132 2.1775 22.4314 2.49195 22.8137C2.8064 23.196 3.23272 23.4111 3.67742 23.4118H12.3214L11.7621 25.451H10.3871C10.2759 25.451 10.1692 25.5047 10.0906 25.6003C10.0119 25.6959 9.96774 25.8256 9.96774 25.9608V26.9804H6.19355C6.08233 26.9804 5.97566 27.0341 5.89702 27.1297C5.81838 27.2253 5.77419 27.355 5.77419 27.4902C5.77419 27.6254 5.81838 27.7551 5.89702 27.8507C5.97566 27.9463 6.08233 28 6.19355 28H24.6452C24.7564 28 24.863 27.9463 24.9417 27.8507C25.0203 27.7551 25.0645 27.6254 25.0645 27.4902C25.0645 27.355 25.0203 27.2253 24.9417 27.1297C24.863 27.0341 24.7564 26.9804 24.6452 26.9804H20.0323V25.9608C20.0323 25.8256 19.9881 25.6959 19.9094 25.6003C19.8308 25.5047 19.7241 25.451 19.6129 25.451H18.2379L17.6786 23.4118H26.3226C26.7673 23.4111 27.1936 23.196 27.5081 22.8137C27.8225 22.4314 27.9994 21.9132 28 21.3725V4.03922C27.9994 3.4986 27.8225 2.98033 27.5081 2.59805C27.1936 2.21578 26.7673 2.00071 26.3226 2ZM19.1935 26.4706V26.9804H10.8065V26.4706H19.1935ZM12.6464 25.451L13.2057 23.4118H16.7943L17.3536 25.451H12.6464ZM27.1613 21.3725C27.161 21.6429 27.0725 21.902 26.9153 22.0931C26.7581 22.2843 26.5449 22.3918 26.3226 22.3922H3.67742C3.45507 22.3918 3.24191 22.2843 3.08468 22.0931C2.92746 21.902 2.839 21.6429 2.83871 21.3725V20.3529H27.1613V21.3725ZM9.11121 14.7451L8.95395 19.3333H8.4654L8.30814 14.7451H9.11121ZM8.36581 13.7255L8.64573 11.6863H8.77363L9.05355 13.7255H8.36581ZM8.70968 10.6667C8.2552 10.6667 7.87097 9.96632 7.87097 9.13725C7.87097 8.61407 8.31024 7.85382 8.70863 7.31789C9.0677 7.80221 9.54839 8.57647 9.54839 9.13725C9.54839 9.96632 9.16415 10.6667 8.70968 10.6667ZM13.2733 9.64706L13.3226 9.7675V10.1569H11.6452V9.7675L11.6944 9.64706H13.2733ZM12.1138 8.62745L12.4839 7.72828L12.854 8.62745H12.1138ZM13.3226 11.1765V19.2696C13.3227 19.2909 13.324 19.3122 13.3263 19.3333H11.6415C11.6438 19.3122 11.645 19.2909 11.6452 19.2696V11.1765H13.3226ZM17.0968 9.13725H18.3548V10.1569H17.9355C17.8243 10.1569 17.7176 10.2106 17.639 10.3062C17.5603 10.4018 17.5161 10.5315 17.5161 10.6667C17.5161 10.8019 17.5603 10.9315 17.639 11.0272C17.7176 11.1228 17.8243 11.1765 17.9355 11.1765H18.3548V12.1961H17.0968C16.9856 12.1961 16.8789 12.2498 16.8002 12.3454C16.7216 12.441 16.6774 12.5707 16.6774 12.7059C16.6774 12.8411 16.7216 12.9708 16.8002 13.0664C16.8789 13.162 16.9856 13.2157 17.0968 13.2157H18.3548V14.2353H17.9355C17.8243 14.2353 17.7176 14.289 17.639 14.3846C17.5603 14.4802 17.5161 14.6099 17.5161 14.7451C17.5161 14.8803 17.5603 15.01 17.639 15.1056C17.7176 15.2012 17.8243 15.2549 17.9355 15.2549H18.3548V16.2745H17.0968C16.9856 16.2745 16.8789 16.3282 16.8002 16.4238C16.7216 16.5194 16.6774 16.6491 16.6774 16.7843C16.6774 16.9195 16.7216 17.0492 16.8002 17.1448C16.8789 17.2404 16.9856 17.2941 17.0968 17.2941H18.3548V19.3333H15.4194V7.09804H18.3548V8.11765H17.0968C16.9856 8.11765 16.8789 8.17136 16.8002 8.26696C16.7216 8.36257 16.6774 8.49224 16.6774 8.62745C16.6774 8.76266 16.7216 8.89233 16.8002 8.98794C16.8789 9.08354 16.9856 9.13725 17.0968 9.13725ZM22.129 15.2549V19.2696C22.1292 19.2909 22.1304 19.3122 22.1327 19.3333H20.4479C20.4502 19.3122 20.4515 19.2909 20.4516 19.2696V15.2549H22.129ZM20.4516 14.2353V13.8459L21.2903 11.8067L22.129 13.8459V14.2353H20.4516ZM27.1613 19.3333H22.9641C22.9664 19.3122 22.9676 19.2909 22.9677 19.2696V13.7255C22.9677 13.6463 22.9526 13.5683 22.9237 13.4974L21.6656 10.4385C21.6307 10.3539 21.5771 10.2827 21.5109 10.2329C21.4446 10.1832 21.3682 10.1568 21.2903 10.1568C21.2124 10.1568 21.1361 10.1832 21.0698 10.2329C21.0035 10.2827 20.9499 10.3539 20.915 10.4385L19.6569 13.4974C19.628 13.5683 19.613 13.6463 19.6129 13.7255V19.2696C19.6131 19.2909 19.6143 19.3122 19.6166 19.3333H19.1935V6.58823C19.1935 6.45303 19.1494 6.32336 19.0707 6.22775C18.9921 6.13214 18.8854 6.07843 18.7742 6.07843H15C14.8888 6.07843 14.7821 6.13214 14.7035 6.22775C14.6248 6.32336 14.5806 6.45303 14.5806 6.58823V19.3333H14.1576C14.1599 19.3122 14.1611 19.2909 14.1613 19.2696V9.64706C14.1612 9.56791 14.1462 9.48984 14.1173 9.41892L12.8592 6.3601C12.8243 6.27544 12.7707 6.20425 12.7044 6.1545C12.6381 6.10476 12.5618 6.07841 12.4839 6.07841C12.406 6.07841 12.3296 6.10476 12.2633 6.1545C12.197 6.20425 12.1435 6.27544 12.1085 6.3601L10.8505 9.41892C10.8216 9.48984 10.8065 9.56791 10.8065 9.64706V19.2696C10.8066 19.2909 10.8078 19.3122 10.8101 19.3333H9.79319L9.96722 14.2563C9.96774 14.2449 9.96722 14.2334 9.96722 14.2213V14.206C9.96625 14.188 9.9645 14.1702 9.96198 14.1525V14.1512L9.57407 11.3211C10.061 10.8744 10.3871 10.0625 10.3871 9.13725C10.3871 7.82706 9.13794 6.37603 8.99536 6.2148C8.91766 6.12725 8.81562 6.0786 8.70968 6.0786C8.60373 6.0786 8.50169 6.12725 8.42399 6.2148C8.28141 6.37603 7.03226 7.82706 7.03226 9.13725C7.03226 10.0625 7.35831 10.8744 7.84528 11.3211L7.45738 14.1512V14.1525C7.45486 14.1702 7.45311 14.188 7.45214 14.206V14.2213C7.45214 14.2334 7.45161 14.2449 7.45214 14.2563L7.62617 19.3333H2.83871V4.03922C2.839 3.76891 2.92746 3.50977 3.08468 3.31864C3.24191 3.1275 3.45507 3.01996 3.67742 3.01961H26.3226C26.5449 3.01996 26.7581 3.1275 26.9153 3.31864C27.0725 3.50977 27.161 3.76891 27.1613 4.03922V19.3333Z" fill="white"/>
</svg>
