<svg width="34" height="37" viewBox="0 0 34 37" fill="none" xmlns="http://www.w3.org/2000/svg">
<rect x="1" width="32" height="31" rx="2" fill="black"/>
<g filter="url(#filter0_d_101075_127)">
<path d="M4 3V25.7494H12.345V27.376H10.8197V29H23.1802V27.376H21.655V25.7494H30V3H4ZM20.1314 27.376H13.8685V25.7494H20.1315V27.376H20.1314ZM28.4765 24.1254H5.52349V20.8734H28.4765V24.1254H28.4765ZM28.4765 19.2494H5.52349V4.62406H28.4765V19.2494H28.4765Z" fill="white"/>
</g>
<path d="M13 8.26544L11.6831 7L7 11.5L11.6831 16L13 14.7346L9.63383 11.5L13 8.26544Z" fill="white"/>
<path d="M22.3169 7L21 8.26544L24.3662 11.5L21 14.7346L22.3169 16L27 11.5L22.3169 7Z" fill="white"/>
<path d="M16.8199 6.94669L15 15.9731L16.9757 16.3609L18.7956 7.33445L16.8199 6.94669Z" fill="white"/>
<defs>
<filter id="filter0_d_101075_127" x="0" y="3" width="34" height="34" filterUnits="userSpaceOnUse" color-interpolation-filters="sRGB">
<feFlood flood-opacity="0" result="BackgroundImageFix"/>
<feColorMatrix in="SourceAlpha" type="matrix" values="0 0 0 0 0 0 0 0 0 0 0 0 0 0 0 0 0 0 127 0" result="hardAlpha"/>
<feOffset dy="4"/>
<feGaussianBlur stdDeviation="2"/>
<feComposite in2="hardAlpha" operator="out"/>
<feColorMatrix type="matrix" values="0 0 0 0 0 0 0 0 0 0 0 0 0 0 0 0 0 0 0.25 0"/>
<feBlend mode="normal" in2="BackgroundImageFix" result="effect1_dropShadow_101075_127"/>
<feBlend mode="normal" in="SourceGraphic" in2="effect1_dropShadow_101075_127" result="shape"/>
</filter>
</defs>
</svg>
